<svg xmlns="http://www.w3.org/2000/svg" viewBox="0 0 105 105"><defs><style>.cls-1{fill:#fff;}.cls-2{fill:#172035;}</style></defs><g id="Layer_2" data-name="Layer 2"><g id="Layer_1-2" data-name="Layer 1"><rect class="cls-1" width="105" height="105" rx="20.03"/><circle class="cls-2" cx="52.5" cy="52.5" r="32"/><path class="cls-1" d="M42.63,43.3A2.72,2.72,0,0,0,40.5,46c-.13,4.8.67,16.26,10.13,19.6a6.85,6.85,0,0,0,3.74,0C63.83,62.23,64.63,50.77,64.5,46a2.72,2.72,0,0,0-2.13-2.67A26.1,26.1,0,0,1,54,39.83a2.15,2.15,0,0,0-1.47-.66A2.79,2.79,0,0,0,51,39.7,25.61,25.61,0,0,1,42.63,43.3Z"/></g></g></svg>