<svg id="Layer_1" data-name="Layer 1" xmlns="http://www.w3.org/2000/svg" viewBox="0 0 105 105"><defs><style>.cls-1{fill:#fff;}</style></defs><rect class="cls-1" width="105" height="105" rx="20.03"/><path d="M39.71,54.1A1.83,1.83,0,0,1,38.13,56H29.24A1.81,1.81,0,0,1,27.5,54.1a1.84,1.84,0,0,1,1.58-1.88H38A1.82,1.82,0,0,1,39.71,54.1Zm30,.27A8.79,8.79,0,0,1,61,63.24a1.78,1.78,0,0,1,0-3.55,5.33,5.33,0,0,0,.27-10.64H33.22A1.78,1.78,0,0,1,33,45.5H61A8.8,8.8,0,0,1,69.7,54.37Zm-13.8,7a1.83,1.83,0,0,1-1.58,1.87H33.23a1.89,1.89,0,0,1-.17-3.75H54.15A1.82,1.82,0,0,1,55.9,61.36Zm-3.72-21a1.84,1.84,0,0,1-1.6,1.87H38a1.82,1.82,0,0,1-1.77-1.88,1.85,1.85,0,0,1,1.6-1.88H50.41A1.83,1.83,0,0,1,52.18,40.38ZM66.49,69.15a16.28,16.28,0,0,1-5.26,1.08H38a1.67,1.67,0,0,1-.18-3.33h22.8a12.39,12.39,0,0,0,4.56-.85,1.78,1.78,0,0,1,2.27.93A1.65,1.65,0,0,1,66.49,69.15ZM55.63,75.62a1.83,1.83,0,0,1-1.57,1.87H45.17a1.82,1.82,0,0,1-1.75-1.88A1.85,1.85,0,0,1,45,73.74h8.89A1.82,1.82,0,0,1,55.63,75.62ZM62.8,54.37a1.83,1.83,0,0,1-1.57,1.87H45.43a1.81,1.81,0,0,1-1.74-1.88,1.84,1.84,0,0,1,1.57-1.88h15.8A1.82,1.82,0,0,1,62.8,54.37ZM76,37.49A1.86,1.86,0,0,1,76.16,40a1.69,1.69,0,0,1-2.45.15A18.54,18.54,0,0,0,61,35.12H45.42a1.81,1.81,0,0,1,0-3.62H61A22,22,0,0,1,76,37.49Zm.31,17.09a16,16,0,0,1-3.41,9.89,1.7,1.7,0,0,1-2.43.27,1.78,1.78,0,0,1-.26-2.47,12.36,12.36,0,0,0-9.07-20h-3.8a1.76,1.76,0,0,1-.18-3.51h3.63A15.69,15.69,0,0,1,76.33,54.58Zm7.17,0A22.71,22.71,0,0,1,60.83,77.23a1.75,1.75,0,1,1,0-3.49A19.21,19.21,0,0,0,78.41,46.86a1.75,1.75,0,0,1,3.2-1.4A22.63,22.63,0,0,1,83.5,54.54Z" transform="translate(-3 -2)"/></svg>