<svg xmlns="http://www.w3.org/2000/svg" xmlns:xlink="http://www.w3.org/1999/xlink" viewBox="0 0 180 180"><defs><style>.cls-1{fill:#fff;stroke:#dcdcdc;}.cls-2,.cls-3{fill:none;stroke-linecap:round;stroke-linejoin:round;stroke-width:4px;}.cls-2{stroke:url(#linear-gradient);}.cls-3{stroke:url(#linear-gradient-2);}</style><linearGradient id="linear-gradient" x1="-214.37" y1="1189.47" x2="-190.47" y2="1169.02" gradientTransform="matrix(1, 0, 0, -1, 287, 1267.2)" gradientUnits="userSpaceOnUse"><stop offset="0" stop-color="#f8842f"/><stop offset="0.51" stop-color="#ffcf26"/><stop offset="1" stop-color="#fff"/></linearGradient><linearGradient id="linear-gradient-2" x1="-215.79" y1="1206.38" x2="-171.92" y2="1137.57" gradientTransform="matrix(1, 0, 0, -1, 287, 1267.2)" gradientUnits="userSpaceOnUse"><stop offset="0" stop-color="#2a7dfd"/><stop offset="1" stop-color="#2663ff"/></linearGradient></defs><g id="Layer_2" data-name="Layer 2"><g id="Layer_1-2" data-name="Layer 1"><path class="cls-1" d="M90,.5h0A89.5,89.5,0,0,1,179.5,90h0A89.5,89.5,0,0,1,90,179.5h0A89.5,89.5,0,0,1,.5,90h0A89.5,89.5,0,0,1,90,.5Z"/><path class="cls-2" d="M73.59,91.43,69.79,120l15.71-9.41L101.21,120l-3.8-28.6M107.5,73a22,22,0,1,1-22-22A22,22,0,0,1,107.5,73Z"/><path class="cls-3" d="M82.59,100.43,78.79,129l15.71-9.41L110.21,129l-3.8-28.6M116.5,82a22,22,0,1,1-22-22A22,22,0,0,1,116.5,82Z"/></g></g></svg>