<svg xmlns="http://www.w3.org/2000/svg" xmlns:xlink="http://www.w3.org/1999/xlink" viewBox="0 0 180 180"><defs><style>.cls-1{fill:#fff;stroke:#dcdcdc;}.cls-2,.cls-3,.cls-4{fill:none;stroke-linecap:round;stroke-linejoin:round;stroke-width:4px;}.cls-2{stroke:url(#linear-gradient);}.cls-3{stroke:url(#linear-gradient-2);}.cls-4{stroke:url(#linear-gradient-3);}</style><linearGradient id="linear-gradient" x1="-172.91" y1="1182.77" x2="-215.72" y2="1169.93" gradientTransform="matrix(1, 0, 0, -1, 287, 1267.2)" gradientUnits="userSpaceOnUse"><stop offset="0" stop-color="#f8842f"/><stop offset="0.51" stop-color="#ffcf26"/><stop offset="1" stop-color="#fff"/></linearGradient><linearGradient id="linear-gradient-2" x1="-208.95" y1="1199.82" x2="-199.08" y2="1155.34" gradientTransform="matrix(1, 0, 0, -1, 287, 1267.2)" gradientUnits="userSpaceOnUse"><stop offset="0" stop-color="#2a7dfd"/><stop offset="1" stop-color="#2663ff"/></linearGradient><linearGradient id="linear-gradient-3" x1="-183" y1="1197.06" x2="-174.86" y2="1177.03" xlink:href="#linear-gradient-2"/></defs><g id="Layer_2" data-name="Layer 2"><g id="Layer_1-2" data-name="Layer 1"><path class="cls-1" d="M90,.5h0A89.5,89.5,0,0,1,179.5,90h0A89.5,89.5,0,0,1,90,179.5h0A89.5,89.5,0,0,1,.5,90h0A89.5,89.5,0,0,1,90,.5Z"/><path class="cls-2" d="M127.5,73.68,101.16,100,87.3,86.16,66.5,107m61-33.27H110.86m16.64,0V90.32"/><path class="cls-3" d="M113.5,73.05,87.16,99.39,73.3,85.52l-20.8,20.8"/><path class="cls-4" d="M96.86,73.05H113.5V89.68"/></g></g></svg>