<svg xmlns="http://www.w3.org/2000/svg" viewBox="0 0 211.4 34.4"><defs><style>.cls-1{isolation:isolate;opacity:0.4;}</style></defs><g id="Layer_2" data-name="Layer 2"><g id="Layer_1-2" data-name="Layer 1"><path class="cls-1" d="M65.16,31.37l1.62-6.16H65.41l-.25.95a2.29,2.29,0,0,0-2.07-1.08,3.24,3.24,0,0,0-2.4,1.11,3.72,3.72,0,0,0-1,2.66,2.74,2.74,0,0,0,.64,1.87,2.2,2.2,0,0,0,1.74.74,2.84,2.84,0,0,0,2-.82l-.19.73Zm-.34-3.52a2.3,2.3,0,0,1-.69,1.68,2.1,2.1,0,0,1-1.55.71,1.4,1.4,0,0,1-1.46-1.49A2.59,2.59,0,0,1,61.73,27a1.94,1.94,0,0,1,1.53-.71A1.46,1.46,0,0,1,64.82,27.85Zm7.26,3.52L73,28A3.46,3.46,0,0,0,73.14,27a1.77,1.77,0,0,0-1.91-1.88,2.7,2.7,0,0,0-1.88.85l.2-.72H68.2l-1.62,6.16H68L68.84,28a1.92,1.92,0,0,1,1.74-1.56c.7,0,1.11.34,1.11,1a2.25,2.25,0,0,1-.09.61l-.89,3.38Zm10.67,0h1.44l-1.4-9H81.06l-5.94,9h1.59l1.35-2.12h4.39ZM82.28,28h-3.4l2.76-4.22Zm7.66,3.38,1.64-6.16H90.19l-.9,3.42a1.91,1.91,0,0,1-1.73,1.56c-.69,0-1.09-.33-1.09-1a2.22,2.22,0,0,1,.07-.61l.9-3.38H86.07l-.89,3.34A4.67,4.67,0,0,0,85,29.63a1.78,1.78,0,0,0,1.93,1.86,2.68,2.68,0,0,0,1.87-.84l-.2.72Zm6.47-6.16a1.76,1.76,0,0,0-.48-.06,2.4,2.4,0,0,0-1.82.9l.23-.84H93l-1.61,6.16h1.37l.82-3.13a2,2,0,0,1,1.91-1.68,1.73,1.73,0,0,1,.54.08Zm4.88,6.16,1.63-6.16h-1.38l-.25.95a2.27,2.27,0,0,0-2.06-1.08,3.22,3.22,0,0,0-2.4,1.11,3.72,3.72,0,0,0-1,2.66,2.75,2.75,0,0,0,.65,1.87,2.17,2.17,0,0,0,1.74.74,2.86,2.86,0,0,0,2-.82l-.2.73ZM101,27.85a2.31,2.31,0,0,1-.7,1.68,2.09,2.09,0,0,1-1.54.71,1.41,1.41,0,0,1-1.47-1.49A2.59,2.59,0,0,1,97.86,27a2,2,0,0,1,1.54-.71A1.47,1.47,0,0,1,101,27.85Zm9.48,1.26a2,2,0,0,1-1.75,1.13,1.49,1.49,0,0,1-1.62-1.61,2.39,2.39,0,0,1,.61-1.57,1.89,1.89,0,0,1,1.49-.73,1.47,1.47,0,0,1,1.57,1.19L112,27a2.55,2.55,0,0,0-2.71-1.94,3.44,3.44,0,0,0-2.52,1.09,3.41,3.41,0,0,0-1.07,2.51,2.66,2.66,0,0,0,.8,2,3,3,0,0,0,2.14.76,3,3,0,0,0,1.79-.53,3.4,3.4,0,0,0,1.17-1.26Zm5.34-4a3.4,3.4,0,0,0-2.52,1.1,3.48,3.48,0,0,0-1.06,2.51,2.64,2.64,0,0,0,.8,2,2.94,2.94,0,0,0,2.09.76,3.41,3.41,0,0,0,2.51-1.07,3.46,3.46,0,0,0,1.08-2.5,2.65,2.65,0,0,0-.82-2A2.89,2.89,0,0,0,115.78,25.08Zm-.61,5.16a1.49,1.49,0,0,1-1.57-1.61,2.43,2.43,0,0,1,.61-1.57,1.86,1.86,0,0,1,1.49-.73,1.46,1.46,0,0,1,1.57,1.6,2.39,2.39,0,0,1-.62,1.58A1.86,1.86,0,0,1,115.17,30.24Zm13.09,1.13.88-3.35a4.16,4.16,0,0,0,.18-1.07,1.76,1.76,0,0,0-1.9-1.87,3,3,0,0,0-2.33,1.05,1.57,1.57,0,0,0-1.64-1.05,2.63,2.63,0,0,0-1.83.85l.2-.72h-1.35l-1.62,6.16h1.38l.89-3.42a1.89,1.89,0,0,1,1.72-1.56.9.9,0,0,1,1,1,2.57,2.57,0,0,1-.09.61l-.89,3.38h1.37l.9-3.42a1.87,1.87,0,0,1,1.69-1.56.92.92,0,0,1,1,1,3.1,3.1,0,0,1-.08.61l-.9,3.38Zm5,.09a3.26,3.26,0,0,0,2.39-1.08,3.74,3.74,0,0,0,1.05-2.68,2.66,2.66,0,0,0-.67-1.88,2.27,2.27,0,0,0-1.73-.72,2.63,2.63,0,0,0-2,.88l.21-.77H131.2l-2.42,9.19h1.37l1.08-4.06A2.08,2.08,0,0,0,133.27,31.46Zm-.11-1.22a1.48,1.48,0,0,1-1.56-1.52,2.37,2.37,0,0,1,.67-1.68,2.13,2.13,0,0,1,1.58-.71,1.39,1.39,0,0,1,1.45,1.5,2.41,2.41,0,0,1-.63,1.7A1.93,1.93,0,0,1,133.16,30.24Zm9.55,1.13,1.63-6.16H143l-.26.95a2.26,2.26,0,0,0-2.06-1.08,3.24,3.24,0,0,0-2.4,1.11,3.72,3.72,0,0,0-1,2.66,2.74,2.74,0,0,0,.64,1.87,2.2,2.2,0,0,0,1.74.74,2.84,2.84,0,0,0,2-.82l-.19.73Zm-.33-3.52a2.3,2.3,0,0,1-.69,1.68,2.1,2.1,0,0,1-1.55.71,1.4,1.4,0,0,1-1.46-1.49,2.59,2.59,0,0,1,.61-1.71,2,2,0,0,1,1.53-.71A1.46,1.46,0,0,1,142.38,27.85Zm7.26,3.52.88-3.35A3.46,3.46,0,0,0,150.7,27a1.77,1.77,0,0,0-1.91-1.88,2.7,2.7,0,0,0-1.88.85l.2-.72h-1.35l-1.62,6.16h1.38L146.4,28a1.92,1.92,0,0,1,1.74-1.56c.7,0,1.11.34,1.11,1a2.25,2.25,0,0,1-.09.61l-.89,3.38Zm2.71,3,6-9.19h-1.49l-2.93,4.59-.69-4.59h-1.4l1,6.12-2,3.07Z"/><path d="M67.05.22a5.19,5.19,0,0,0-4.11,1.64V.51H59.81V20h3.13V13.2a4.46,4.46,0,0,0,1.09.71,6.6,6.6,0,0,0,3,.72c3.82,0,6.47-3,6.47-7.32S70.87.22,67.05.22Zm-.44,11.54c-2.22,0-3.65-1.62-3.65-4.14,0-2.68,1.51-4.49,3.75-4.49a3.49,3.49,0,0,1,2.61,1.16,4.49,4.49,0,0,1,1,3.11C70.28,10.06,68.82,11.76,66.61,11.76Z"/><path d="M85.2,1.76a5.57,5.57,0,0,0-4-1.55c-3.78,0-6.53,3-6.53,7.25s2.74,7.17,6.48,7.17a5.4,5.4,0,0,0,4.1-1.79v1.5h3.13V.51H85.2Zm-3.8,10c-2,0-3.55-1.83-3.55-4.24a5.38,5.38,0,0,1,1-3.08,3,3,0,0,1,2.65-1.31c2.25,0,3.76,1.68,3.76,4.16S83.52,11.76,81.4,11.76Z"/><path d="M98,.22a5.5,5.5,0,0,0-3.82,1.37V.53H90.84V14.34h3.38V6.75A3,3,0,0,1,97.47,3.4c1.74,0,2.56.89,2.56,2.81v8.13h3.38V6C103.41,2.48,101.29.22,98,.22Z"/><path d="M115.59,1.8a5.27,5.27,0,0,0-4-1.59,6.15,6.15,0,0,0-4.38,1.63,7.91,7.91,0,0,0-2.15,5.62c0,4.09,2.73,7.17,6.37,7.17a5.37,5.37,0,0,0,4.15-1.77v1.19a4,4,0,0,1-.82,2.7,4.06,4.06,0,0,1-2.92,1.07,5.67,5.67,0,0,1-2.68-.65,7,7,0,0,1-1.13-1l-.36-.39-2.15,2.18.32.37a7.67,7.67,0,0,0,6,2.5,7,7,0,0,0,5-1.83,6.44,6.44,0,0,0,1.83-5.06V.51h-3.13V1.8Zm-.84,8.49a3.74,3.74,0,0,1-2.83,1.37c-2.1,0-3.63-1.79-3.63-4.27S109.8,3.21,112,3.21a3.8,3.8,0,0,1,2.69,1.23,3.94,3.94,0,0,1,.86,3A4.72,4.72,0,0,1,114.75,10.29Z"/><path d="M164.25,1a2.87,2.87,0,0,0-.75-.07,4.09,4.09,0,0,0-3.8,2.32V1h-3V14.84h3.08v-7c0-2.4,1.24-3.77,3.59-3.77a4.56,4.56,0,0,1,.88.08ZM172,.75a7.21,7.21,0,0,0-5.17,2.07,6.82,6.82,0,0,0-2.14,5.09A6.78,6.78,0,0,0,166.8,13,7.24,7.24,0,0,0,172,15.07,7.06,7.06,0,0,0,177.12,13a6.9,6.9,0,0,0,2.12-5.14,6.74,6.74,0,0,0-2.12-5.07A7.1,7.1,0,0,0,172,.75Zm-3,4.06a3.87,3.87,0,0,1,3-1.27,3.79,3.79,0,0,1,3,1.27,4.47,4.47,0,0,1,1.16,3.1A4.57,4.57,0,0,1,175,11a3.77,3.77,0,0,1-3,1.27A3.92,3.92,0,0,1,169,11a4.6,4.6,0,0,1-1.16-3.13A4.37,4.37,0,0,1,169,4.81ZM181.4,1V9.51c0,3.31,1.83,5.61,5.17,5.61A5,5,0,0,0,190.78,13v1.86h3V1H190.7V8.71c0,2.1-1.24,3.49-3.18,3.49s-3.05-1.37-3.05-3.44V1Zm30,6.86A7.27,7.27,0,0,0,209.52,3,6.12,6.12,0,0,0,204.63.78a6.36,6.36,0,0,0-2.51.57A4.37,4.37,0,0,0,200,3.18V1h-3V21.64h3.07V12.82a4.44,4.44,0,0,0,2.07,1.68,6.45,6.45,0,0,0,2.4.55,6.36,6.36,0,0,0,4.92-2.12A7.28,7.28,0,0,0,211.4,7.89ZM201.17,4.81a3.87,3.87,0,0,1,3-1.27,3.79,3.79,0,0,1,3,1.27,4.47,4.47,0,0,1,1.16,3.1,4.45,4.45,0,0,1-1.16,3.1,3.84,3.84,0,0,1-3,1.24,3.92,3.92,0,0,1-3-1.24A4.53,4.53,0,0,1,200,7.91,4.55,4.55,0,0,1,201.17,4.81Z"/><path d="M150.28,1.6a5.23,5.23,0,0,0-4-1.6,6.15,6.15,0,0,0-4.37,1.64,7.86,7.86,0,0,0-2.16,5.62c0,4.08,2.73,7.16,6.38,7.16a5.35,5.35,0,0,0,4.14-1.77v1.19a3.93,3.93,0,0,1-.82,2.7,4,4,0,0,1-2.92,1.08,5.54,5.54,0,0,1-2.67-.66,6.24,6.24,0,0,1-1.13-1l-.36-.38-2.16,2.17.32.37a7.66,7.66,0,0,0,6,2.5,6.94,6.94,0,0,0,5-1.83,6.4,6.4,0,0,0,1.83-5.06V.31h-3.13V1.6Zm-.84,8.49a3.71,3.71,0,0,1-2.82,1.37c-2.1,0-3.63-1.79-3.63-4.28S144.5,3,146.67,3a3.82,3.82,0,0,1,2.7,1.24,4,4,0,0,1,.86,3A4.7,4.7,0,0,1,149.44,10.09Z"/><path d="M127.3.22c-4.12,0-7,3-7,7.2s2.84,7.22,6.91,7.22a7,7,0,0,0,7-7.16C134.22,3.26,131.31.22,127.3.22Zm0,11.44c-2.32,0-3.8-1.66-3.8-4.22s1.5-4.23,3.81-4.23,3.75,1.65,3.75,4.23S129.5,11.66,127.29,11.66Z"/><path d="M23.3,15.78A11.79,11.79,0,0,0,11.57,27.6h5.69a6,6,0,1,1,12.08,0H35A11.76,11.76,0,0,0,23.3,15.78Z"/><path d="M23.3,4.08A23.42,23.42,0,0,0,0,27.57H5.68A17.75,17.75,0,0,1,23.33,9.78a17.54,17.54,0,0,1,16.31,11l5.24-2.18A23.27,23.27,0,0,0,23.3,4.08Z"/></g></g></svg>