<?xml version="1.0" encoding="utf-8"?>
<!-- Generator: Adobe Illustrator 25.2.0, SVG Export Plug-In . SVG Version: 6.00 Build 0)  -->
<svg version="1.1" id="Layer_1" xmlns="http://www.w3.org/2000/svg" xmlns:xlink="http://www.w3.org/1999/xlink" x="0px" y="0px"
	 viewBox="0 0 226.8 34.4" style="enable-background:new 0 0 226.8 34.4;" xml:space="preserve">
<style type="text/css">
	.st0{font-family:'Poppins-Bold';}
	.st1{font-size:18px;}
</style>
<path d="M29.1,15.8c-6.5,0-11.7,5.3-11.7,11.8H23c0-3.3,2.7-6,6-6s6,2.7,6,6h5.7C40.8,21.1,35.6,15.8,29.1,15.8
	C29.1,15.8,29.1,15.8,29.1,15.8z"/>
<path d="M29.1,4.1C16.2,4.1,5.7,14.7,5.8,27.6h5.7c0-9.8,7.9-17.7,17.6-17.8c7.2,0,13.6,4.3,16.3,11l5.2-2.2
	C47.1,9.8,38.6,4.1,29.1,4.1z"/>
<text transform="matrix(1 0 0 1 56.7746 24.5155)" class="st0 st1">44+ Technologies</text>
</svg>
