<svg width="2208" height="507" viewBox="0 0 2208 507" fill="none" xmlns="http://www.w3.org/2000/svg">
<g clip-path="url(#clip0_107_146)">
<mask id="mask0_107_146" style="mask-type:luminance" maskUnits="userSpaceOnUse" x="-46" y="26" width="699" height="437">
<path d="M652.325 26H-46V462.453H652.325V26Z" fill="white"/>
<g clip-path="url(#clip1_107_146)">
<g clip-path="url(#clip2_107_146)">
<g clip-path="url(#clip3_107_146)">
<g clip-path="url(#clip4_107_146)">
<g clip-path="url(#clip5_107_146)">
<g clip-path="url(#clip6_107_146)">
<path d="M268.94 283.038H302.206V310.951H268.94V374.043H234.908V310.951H125.549V285.714L202.407 114.41L231.849 126.646L162.64 283.038H235.291L238.35 214.21H268.94V283.038ZM392.829 175.59H424.949V232.946H480.775V262.007H424.949V318.981H392.829V262.007H337.385V232.946H392.829V175.59Z" fill="black" stroke="black" stroke-width="38.2374" stroke-linejoin="round"/>
</g>
</g>
</g>
</g>
</g>
</g>
</mask>
<g mask="url(#mask0_107_146)">
<path d="M395.723 309.47H451.646V356.392H395.723V462.453H338.516V356.392H154.678V313.969L283.879 26L333.373 46.5691L217.028 309.47H339.159L344.3 193.768H395.723V309.47Z" fill="#202020"/>
</g>
<g clip-path="url(#clip7_107_146)">
<g clip-path="url(#clip8_107_146)">
<g clip-path="url(#clip9_107_146)">
<g clip-path="url(#clip10_107_146)">
<g clip-path="url(#clip11_107_146)">
<g clip-path="url(#clip12_107_146)">
<path d="M268.94 283.038H302.206V310.951H268.94V374.043H234.908V310.951H125.549V285.714L202.407 114.41L231.849 126.646L162.64 283.038H235.291L238.35 214.21H268.94V283.038ZM392.829 175.59H424.949V232.946H480.775V262.007H424.949V318.981H392.829V262.007H337.385V232.946H392.829V175.59Z" fill="#202020"/>
</g>
</g>
</g>
</g>
</g>
</g>
<path d="M625.739 280.832H567.753L563 262.776L628.59 186.751H650.454V259.925H666.614V281.783H651.405V307.441H625.739V280.832ZM625.739 259.925V221.913L594.369 259.925H625.739Z" fill="#202020"/>
<path d="M743.612 280.832H684.675L679.922 261.826L745.513 185.801H767.376V258.975H783.536V280.832H767.376V306.491H743.612V280.832ZM743.612 259.925V221.913L712.242 258.975H743.612V259.925Z" fill="#202020"/>
<path d="M835.819 258.025H804.449V235.217H835.819V203.857H860.534V234.267H891.903V258.025H860.534V288.435H835.819V258.025Z" fill="#202020"/>
<path d="M987.912 211.46H951.79V186.751H1050.65V211.46H1014.53V306.491H987.912V211.46Z" fill="#202020"/>
<path d="M1063.96 261.826C1063.96 235.217 1082.97 213.36 1109.59 213.36C1140.01 213.36 1154.26 237.118 1154.26 262.776C1154.26 264.677 1154.26 267.528 1154.26 269.429H1090.58C1093.43 280.832 1101.03 287.485 1113.39 287.485C1121.95 287.485 1128.6 284.634 1135.25 277.981L1150.46 291.286C1141.91 301.739 1129.55 308.391 1113.39 308.391C1083.92 309.342 1063.96 289.385 1063.96 261.826ZM1128.6 254.224C1126.7 242.82 1120.04 234.267 1109.59 234.267C1099.13 234.267 1091.53 241.87 1089.63 254.224H1128.6Z" fill="#202020"/>
<path d="M1168.52 261.826C1168.52 235.217 1188.49 213.36 1217 213.36C1234.11 213.36 1244.57 219.062 1254.08 228.565L1237.92 245.671C1232.21 239.969 1226.51 235.217 1217 235.217C1203.7 235.217 1195.14 246.621 1195.14 259.926C1195.14 274.18 1204.65 285.584 1217.95 285.584C1226.51 285.584 1232.21 281.783 1238.87 276.081L1254.08 291.286C1245.52 300.789 1235.07 308.391 1217 308.391C1188.49 309.342 1168.52 287.485 1168.52 261.826Z" fill="#202020"/>
<path d="M1271.19 182H1296.85V228.565C1302.56 220.963 1311.11 214.311 1323.47 214.311C1343.43 214.311 1354.84 227.615 1354.84 248.522V307.441H1329.17V256.124C1329.17 243.77 1323.47 237.118 1313.01 237.118C1302.56 237.118 1296.85 243.77 1296.85 256.124V307.441H1271.19V182Z" fill="#202020"/>
<path d="M1377.65 215.261H1403.32V228.565C1409.02 220.963 1417.58 214.311 1429.94 214.311C1449.9 214.311 1461.3 227.615 1461.3 248.522V307.441H1435.64V256.124C1435.64 243.77 1429.94 237.118 1419.48 237.118C1409.02 237.118 1403.32 243.77 1403.32 256.124V307.441H1377.65V215.261Z" fill="#202020"/>
<path d="M1479.37 261.826C1479.37 235.217 1500.28 213.36 1528.8 213.36C1557.31 213.36 1578.23 234.267 1578.23 260.876C1578.23 287.485 1557.31 308.391 1528.8 308.391C1501.23 309.342 1479.37 288.435 1479.37 261.826ZM1553.51 261.826C1553.51 247.572 1544.01 236.168 1529.75 236.168C1514.54 236.168 1505.98 247.572 1505.98 260.876C1505.98 274.18 1515.49 286.534 1529.75 286.534C1544.01 286.534 1553.51 275.131 1553.51 261.826Z" fill="#202020"/>
<path d="M1599.14 182H1624.81V306.491H1599.14V182Z" fill="#202020"/>
<path d="M1644.77 261.826C1644.77 235.217 1665.68 213.36 1694.2 213.36C1722.72 213.36 1743.63 234.267 1743.63 260.876C1743.63 287.485 1722.72 308.391 1694.2 308.391C1665.68 309.342 1644.77 288.435 1644.77 261.826ZM1718.91 261.826C1718.91 247.572 1709.41 236.168 1695.15 236.168C1679.94 236.168 1671.38 247.572 1671.38 260.876C1671.38 274.18 1680.89 286.534 1695.15 286.534C1709.41 286.534 1718.91 275.131 1718.91 261.826Z" fill="#202020"/>
<path d="M1763.59 325.497L1772.15 305.54C1781.65 311.242 1791.16 314.093 1803.52 314.093C1821.58 314.093 1830.13 305.54 1830.13 289.385V284.634C1822.53 294.137 1813.97 299.838 1799.71 299.838C1778.8 299.838 1758.84 284.634 1758.84 257.075C1758.84 229.516 1778.8 214.311 1799.71 214.311C1813.97 214.311 1822.53 220.012 1829.18 227.615V215.261H1854.85V286.534C1854.85 302.689 1851.05 315.043 1843.44 322.646C1834.89 331.199 1821.58 335 1803.52 335C1789.26 335 1775 331.199 1763.59 325.497ZM1829.18 256.124C1829.18 243.77 1819.68 234.267 1806.37 234.267C1794.01 234.267 1784.5 242.82 1784.5 255.174C1784.5 268.478 1794.01 276.081 1806.37 276.081C1819.68 277.981 1829.18 269.429 1829.18 256.124Z" fill="#202020"/>
<path d="M1878.61 188.652H1906.18V204.807H1878.61V188.652ZM1879.56 215.261H1905.23V307.441H1879.56V215.261Z" fill="#202020"/>
<path d="M1926.14 261.826C1926.14 235.217 1945.15 213.36 1971.77 213.36C2002.19 213.36 2016.45 237.118 2016.45 262.776C2016.45 264.677 2016.45 267.528 2016.45 269.429H1952.76C1955.61 280.832 1963.21 287.485 1975.57 287.485C1984.13 287.485 1990.78 284.634 1997.44 277.981L2012.65 291.286C2004.09 301.739 1991.73 308.391 1975.57 308.391C1946.1 309.342 1926.14 289.385 1926.14 261.826ZM1990.78 254.224C1988.88 242.82 1982.23 234.267 1971.77 234.267C1961.31 234.267 1953.71 241.87 1951.81 254.224H1990.78Z" fill="#202020"/>
<path d="M2027.85 295.087L2039.26 277.981C2049.72 285.584 2059.22 289.385 2067.78 289.385C2075.38 289.385 2079.19 286.534 2079.19 282.733C2079.19 277.031 2070.63 275.131 2060.17 272.28C2046.87 268.478 2032.61 262.777 2032.61 244.721C2032.61 225.714 2047.82 215.261 2065.88 215.261C2077.29 215.261 2089.64 219.062 2100.1 225.714L2090.59 243.77C2081.09 238.068 2072.53 235.218 2065.88 235.218C2059.22 235.218 2056.37 238.068 2056.37 241.87C2056.37 246.621 2064.93 249.472 2075.38 253.273C2088.69 257.075 2102.95 263.727 2102.95 280.832C2102.95 300.789 2087.74 310.292 2067.78 310.292C2054.47 308.391 2040.21 304.59 2027.85 295.087Z" fill="#202020"/>
</g>
<defs>
<clipPath id="clip0_107_146">
<rect width="2208" height="507" fill="white"/>
</clipPath>
<clipPath id="clip1_107_146">
<rect width="403.565" height="305.517" fill="white" transform="translate(101.38 91.468)"/>
</clipPath>
<clipPath id="clip2_107_146">
<rect width="403.565" height="305.517" fill="white" transform="translate(101.38 91.468)"/>
</clipPath>
<clipPath id="clip3_107_146">
<rect width="403.565" height="305.517" fill="white" transform="translate(101.38 91.468)"/>
</clipPath>
<clipPath id="clip4_107_146">
<rect width="403.565" height="305.517" fill="white" transform="translate(101.38 91.468)"/>
</clipPath>
<clipPath id="clip5_107_146">
<rect width="403.565" height="305.517" fill="white" transform="translate(101.38 91.468)"/>
</clipPath>
<clipPath id="clip6_107_146">
<rect width="403.565" height="305.517" fill="white" transform="translate(101.38 91.468)"/>
</clipPath>
<clipPath id="clip7_107_146">
<rect width="403.565" height="305.517" fill="white" transform="translate(101.38 91.468)"/>
</clipPath>
<clipPath id="clip8_107_146">
<rect width="403.565" height="305.517" fill="white" transform="translate(101.38 91.468)"/>
</clipPath>
<clipPath id="clip9_107_146">
<rect width="403.565" height="305.517" fill="white" transform="translate(101.38 91.468)"/>
</clipPath>
<clipPath id="clip10_107_146">
<rect width="403.565" height="305.517" fill="white" transform="translate(101.38 91.468)"/>
</clipPath>
<clipPath id="clip11_107_146">
<rect width="403.565" height="305.517" fill="white" transform="translate(101.38 91.468)"/>
</clipPath>
<clipPath id="clip12_107_146">
<rect width="403.565" height="305.517" fill="white" transform="translate(101.38 91.468)"/>
</clipPath>
</defs>
</svg>
