<svg width="701" height="437" viewBox="0 0 701 437" fill="none" xmlns="http://www.w3.org/2000/svg">
<g clip-path="url(#clip0_10_271)">
<g clip-path="url(#clip1_10_271)">
<g clip-path="url(#clip2_10_271)">
<mask id="mask0_10_271" style="mask-type:luminance" maskUnits="userSpaceOnUse" x="1" y="-1" width="699" height="438">
<path d="M699.738 -0.0499268H1.41309V436.403H699.738V-0.0499268Z" fill="white"/>
<g clip-path="url(#clip3_10_271)">
<g clip-path="url(#clip4_10_271)">
<g clip-path="url(#clip5_10_271)">
<g clip-path="url(#clip6_10_271)">
<g clip-path="url(#clip7_10_271)">
<g clip-path="url(#clip8_10_271)">
<path d="M316.353 256.988H349.62V284.901H316.353V347.993H282.322V284.901H172.963V259.664L249.82 88.3605L279.263 100.597L210.053 256.988H282.704L285.763 188.16H316.353V256.988ZM440.242 149.54H472.362V206.897H528.188V235.957H472.362V292.931H440.242V235.957H384.798V206.897H440.242V149.54Z" fill="black" stroke="black" stroke-width="38.2374" stroke-linejoin="round"/>
</g>
</g>
</g>
</g>
</g>
</g>
</mask>
<g mask="url(#mask0_10_271)">
<path d="M443.137 283.42H499.06V330.343H443.137V436.403H385.93V330.343H202.092V287.919L331.292 -0.0499268L380.787 20.5192L264.441 283.42H386.572L391.714 167.718H443.137V283.42Z" fill="black"/>
</g>
<g clip-path="url(#clip9_10_271)">
<g clip-path="url(#clip10_10_271)">
<g clip-path="url(#clip11_10_271)">
<g clip-path="url(#clip12_10_271)">
<g clip-path="url(#clip13_10_271)">
<g clip-path="url(#clip14_10_271)">
<path d="M316.353 256.988H349.62V284.901H316.353V347.993H282.322V284.901H172.963V259.664L249.82 88.3605L279.263 100.597L210.053 256.988H282.704L285.763 188.16H316.353V256.988ZM440.242 149.54H472.362V206.897H528.188V235.957H472.362V292.931H440.242V235.957H384.798V206.897H440.242V149.54Z" fill="black"/>
</g>
</g>
</g>
</g>
</g>
</g>
</g>
</g>
</g>
<defs>
<clipPath id="clip0_10_271">
<rect width="700" height="436.1" fill="white" transform="translate(0.575684 0.126587)"/>
</clipPath>
<clipPath id="clip1_10_271">
<rect width="698.325" height="436.453" fill="white" transform="translate(1.41309 -0.0499268)"/>
</clipPath>
<clipPath id="clip2_10_271">
<rect width="698.325" height="436.453" fill="white" transform="translate(1.41309 -0.0499268)"/>
</clipPath>
<clipPath id="clip3_10_271">
<rect width="403.565" height="305.517" fill="white" transform="translate(148.793 65.4181)"/>
</clipPath>
<clipPath id="clip4_10_271">
<rect width="403.565" height="305.517" fill="white" transform="translate(148.793 65.4181)"/>
</clipPath>
<clipPath id="clip5_10_271">
<rect width="403.565" height="305.517" fill="white" transform="translate(148.793 65.4181)"/>
</clipPath>
<clipPath id="clip6_10_271">
<rect width="403.565" height="305.517" fill="white" transform="translate(148.793 65.4181)"/>
</clipPath>
<clipPath id="clip7_10_271">
<rect width="403.565" height="305.517" fill="white" transform="translate(148.793 65.4181)"/>
</clipPath>
<clipPath id="clip8_10_271">
<rect width="403.565" height="305.517" fill="white" transform="translate(148.793 65.4181)"/>
</clipPath>
<clipPath id="clip9_10_271">
<rect width="403.565" height="305.517" fill="white" transform="translate(148.793 65.4181)"/>
</clipPath>
<clipPath id="clip10_10_271">
<rect width="403.565" height="305.517" fill="white" transform="translate(148.793 65.4181)"/>
</clipPath>
<clipPath id="clip11_10_271">
<rect width="403.565" height="305.517" fill="white" transform="translate(148.793 65.4181)"/>
</clipPath>
<clipPath id="clip12_10_271">
<rect width="403.565" height="305.517" fill="white" transform="translate(148.793 65.4181)"/>
</clipPath>
<clipPath id="clip13_10_271">
<rect width="403.565" height="305.517" fill="white" transform="translate(148.793 65.4181)"/>
</clipPath>
<clipPath id="clip14_10_271">
<rect width="403.565" height="305.517" fill="white" transform="translate(148.793 65.4181)"/>
</clipPath>
</defs>
</svg>
