<svg xmlns="http://www.w3.org/2000/svg" viewBox="0 0 105 105"><defs><style>.cls-1{fill:#fff;}.cls-2{fill:#2ea6f8;}</style></defs><g id="Layer_2" data-name="Layer 2"><g id="Layer_1-2" data-name="Layer 1"><rect class="cls-1" width="105" height="105" rx="20.03"/><path class="cls-2" d="M66.35,51.3a14.09,14.09,0,0,0-14-14V34.44A16.61,16.61,0,0,1,69,51.09H66.35ZM52.5,68A16.75,16.75,0,0,1,40.66,39.45l5.82,5.82a8,8,0,0,0-2.41,5.82,8.48,8.48,0,0,0,8.43,8.44,8.17,8.17,0,0,0,5.82-2.41l5.82,5.82A15.3,15.3,0,0,1,52.5,68Zm0-27.9A11.22,11.22,0,0,1,63.74,51.3H60.93a8.48,8.48,0,0,0-8.43-8.43ZM79.8,24.4H25a.53.53,0,0,0-.6.6V52.5a28.1,28.1,0,1,0,56.2-.2V25C80.4,24.6,80.2,24.4,79.8,24.4Z"/></g></g></svg>