<svg xmlns="http://www.w3.org/2000/svg" xmlns:xlink="http://www.w3.org/1999/xlink" viewBox="0 0 180 180"><defs><style>.cls-1{fill:#fff;stroke:#dcdcdc;}.cls-2,.cls-3{fill:none;stroke-linecap:round;stroke-linejoin:round;stroke-width:4px;}.cls-2{stroke:url(#linear-gradient);}.cls-3{stroke:url(#linear-gradient-2);}</style><linearGradient id="linear-gradient" x1="-197.28" y1="1193" x2="-176.98" y2="1171.41" gradientTransform="matrix(1, 0, 0, -1, 287, 1267.2)" gradientUnits="userSpaceOnUse"><stop offset="0" stop-color="#f8842f"/><stop offset="0.51" stop-color="#ffcf26"/><stop offset="1" stop-color="#fff"/></linearGradient><linearGradient id="linear-gradient-2" x1="-216.96" y1="1208.09" x2="-183.94" y2="1143.67" gradientTransform="matrix(1, 0, 0, -1, 287, 1267.2)" gradientUnits="userSpaceOnUse"><stop offset="0" stop-color="#2a7dfd"/><stop offset="1" stop-color="#2663ff"/></linearGradient></defs><g id="Layer_2" data-name="Layer 2"><g id="Layer_1-2" data-name="Layer 1"><path class="cls-1" d="M90,.5h0A89.5,89.5,0,0,1,179.5,90h0A89.5,89.5,0,0,1,90,179.5h0A89.5,89.5,0,0,1,.5,90h0A89.5,89.5,0,0,1,90,.5Z"/><path class="cls-2" d="M96.5,116s23-11.6,23-29V66.7L96.5,58l-23,8.7V87C73.5,104.4,96.5,116,96.5,116Z"/><path class="cls-3" d="M83.5,122s23-11.6,23-29V72.7L83.5,64l-23,8.7V93C60.5,110.4,83.5,122,83.5,122Z"/></g></g></svg>