<svg xmlns="http://www.w3.org/2000/svg" viewBox="0 0 105 105"><defs><style>.cls-1{fill:#fff;}.cls-2{fill:#ff8600;}.cls-3{fill:#333;}</style></defs><g id="Layer_2" data-name="Layer 2"><g id="Layer_1-2" data-name="Layer 1"><rect class="cls-1" width="105" height="105" rx="20.03"/><path class="cls-2" d="M53.4,54.43H51.52V47.8H45.1l6.42-13.41H53.4V41h6.33ZM48,46h5.4v4.32L57,42.79H51.6V38.47Z"/><path class="cls-2" d="M84.86,68.61V58.82h1.33l5,6.33V58.82H93v9.79H91.67l-5-6.32v6.32Zm-17.29,0,3.75-9.79H69.37l-2.59,6.79-2.66-6.86h-2L66,68.61Zm8.21,0V65.07h3.13a3.09,3.09,0,1,0,0-6.17h-5v1.7h5a1.31,1.31,0,1,1,0,2.62H74v5.32h1.8Z"/><path class="cls-3" d="M16.07,68.61A4.12,4.12,0,0,1,12,64.53V58.75h1.8v5.78a2.27,2.27,0,0,0,4.54,0V58.75h1.8v5.78A4.12,4.12,0,0,1,16.07,68.61Zm15,0V66.76H26.48V58.82h-1.8v9.79Zm6.26,0h-1.8v-8H30.94V58.82h6.34Zm6.34,0v-8h3.13a1.31,1.31,0,0,1,1.33,1.31,1.37,1.37,0,0,1-1.33,1.31H45.42v1.54l2.66,3.78h2.27l-2.59-3.7a3.1,3.1,0,0,0-.86-6.09h-5v9.86Zm10.8,0,2.66-6.78,2.66,6.78h1.95l-3.75-9.79H56.37l-3.75,9.79Z"/></g></g></svg>